<svg id="Layer_1" data-name="Layer 1" xmlns="http://www.w3.org/2000/svg" viewBox="0 0 1000 1000"><defs><style>.cls-1{fill:#ffc1eb;}.cls-2{fill:#fb6d6d;}.cls-3{fill:#fff;}.cls-4{fill:#c7b8f8;}.cls-5{fill:#ffbb45;}.cls-6{fill:#6dc8c2;}</style></defs><path class="cls-1" d="M676.91,134.21,177,353.27c-43.63,19.12-50.21,78.31-11.83,106.53L604.81,783.25c38.37,28.23,92.92,4.33,98.17-43l60.27-542.5C768.51,150.38,720.54,115.09,676.91,134.21Z"/><path d="M840.32,807.44H109.69a2,2,0,0,1,0-4H840.32a2,2,0,1,1,0,4Z"/><path class="cls-2" d="M566.23,409.83l24.94-82.42a8.17,8.17,0,0,1,11.6-4.88l26.92,14a8.17,8.17,0,0,1,1.76,13.26Z"/><path class="cls-2" d="M559.84,406.6,631,362.3a8.67,8.67,0,0,1,12.77,4.52l9.44,27.33a8.67,8.67,0,0,1-8.09,11.5Z"/><circle cx="459.22" cy="499.12" r="59.99"/><rect class="cls-3" x="67.43" y="238.34" width="289.78" height="158.5" rx="27.1"/><path d="M330.11,398.84H94.54a29.14,29.14,0,0,1-29.11-29.11V265.45a29.14,29.14,0,0,1,29.11-29.11H330.11a29.14,29.14,0,0,1,29.1,29.11V369.73A29.14,29.14,0,0,1,330.11,398.84ZM94.54,240.34a25.13,25.13,0,0,0-25.11,25.11V369.73a25.13,25.13,0,0,0,25.11,25.11H330.11a25.13,25.13,0,0,0,25.1-25.11V265.45a25.13,25.13,0,0,0-25.1-25.11Z"/><path d="M120.32,291.82a2,2,0,0,1-2-1.95c-.19-8.14,2.82-13,5.39-15.65a15.69,15.69,0,0,1,10.86-4.9h.11a15.11,15.11,0,0,1,10.54,4.6c2.62,2.63,5.73,7.53,5.63,15.92a2,2,0,0,1-2,2h0a2,2,0,0,1-2-2c.08-7-2.38-11-4.46-13.05a11.28,11.28,0,0,0-7.72-3.42h-.07a11.68,11.68,0,0,0-8,3.68c-2.91,3-4.39,7.42-4.26,12.77a2,2,0,0,1-1.95,2.05Z"/><path class="cls-4" d="M163.32,368.91H106.14a9.83,9.83,0,0,1-9.74-11.13l8-59.44a9.82,9.82,0,0,1,9.74-8.52H154a9.83,9.83,0,0,1,9.71,8.3L173,357.57A9.81,9.81,0,0,1,163.32,368.91Z"/><rect class="cls-5" x="202.53" y="280.75" width="123.93" height="21.63" rx="7.79"/><path d="M321.29,329.76H207.71a2,2,0,0,1,0-4H321.29a2,2,0,0,1,0,4Z"/><path d="M305.3,355.46H207.71a2,2,0,1,1,0-4H305.3a2,2,0,0,1,0,4Z"/><ellipse cx="638.62" cy="548.55" rx="62.72" ry="62.32"/><ellipse cx="575.9" cy="464.47" rx="62.72" ry="62.32"/><path d="M520.8,454.46H482.68A71.45,71.45,0,0,1,411.23,383V334.24A42.29,42.29,0,0,1,453.53,292H505a65.76,65.76,0,0,1,65.76,65.76v46.83A49.91,49.91,0,0,1,520.8,454.46Z"/><path class="cls-3" d="M427,308.7s-22.62,3.34-28.56,51.18a28.06,28.06,0,0,1-7.21,15.65l-3.64,3.94a5.52,5.52,0,0,0-.15,7.33l4.93,5.8-2.49,30.6s-5,32.61,33.39,31.6l24.42,0v33.83h76.75V430.48s17.49-3,20.67-20.22a29,29,0,0,0-6.66-24.39c-5.73-6.49-15.83-12-32.46-4.24C506,381.63,439.94,394.89,427,308.7Z"/><path d="M519.21,417.65a8,8,0,1,1,8-8A8,8,0,0,1,519.21,417.65Zm0-12.06a4,4,0,1,0,4,4A4,4,0,0,0,519.21,405.59Z"/><path d="M513.18,411.62a2,2,0,0,1-2-1.94c-.14-4.13,1.09-7.47,3.67-9.93,5.12-4.88,13.67-4.26,14-4.23a2,2,0,1,1-.31,4h0c-.07,0-7.16-.5-11,3.16-1.73,1.66-2.52,3.91-2.42,6.89a2,2,0,0,1-1.94,2.07Z"/><circle cx="435.05" cy="376.84" r="4.73"/><path d="M418.44,421.46a14.33,14.33,0,0,1-5.61-1.12c-5.75-2.43-9.61-8.84-9.6-15.94a4.08,4.08,0,0,1,4.8-4h0l23.85,4.26a4.1,4.1,0,0,1,3,5.7C431.82,417.16,425.05,421.46,418.44,421.46Zm-11.13-17.17,0,0a.12.12,0,0,0,0,.09c0,5.52,2.87,10.44,7.16,12.26,6.58,2.78,14.16-2,16.85-8l-.06-.12-23.86-4.26Z"/><path d="M447.06,454.84h36.67a1.42,1.42,0,0,1,.56,2.72l-37.23,15.9Z"/><path class="cls-4" d="M447.06,487.85a8.5,8.5,0,0,1,6-8.16,21.76,21.76,0,0,1,4.09-.82,23.31,23.31,0,0,1,14.89,3.69,21.06,21.06,0,0,1,25.72-.06,24,24,0,0,1,12.56-4.06,23.57,23.57,0,0,1,8.28,1.26,8.46,8.46,0,0,1,5.67,8v17.5H447.06Z"/><path class="cls-4" d="M744.77,740.3l-441.25-.37,19.56-179.07A69.4,69.4,0,0,1,391.9,499l182.41-.46a106.81,106.81,0,0,1,99.19,66.55c37,85.08,63.77,147.2,66.69,154.57a76.47,76.47,0,0,1,3.33,11.11A65.64,65.64,0,0,1,744.77,740.3Z"/><path d="M611.27,740.07H385.09V586.78H555.78a10.92,10.92,0,0,1,10.43,7.69Z"/><path d="M555.75,588.78a2,2,0,0,1-2-1.66c-.56-3.31-13.43-81.11,13.42-90.46a2,2,0,1,1,1.32,3.78c-19.67,6.84-14.46,64.41-10.79,86a2,2,0,0,1-1.64,2.31A1.94,1.94,0,0,1,555.75,588.78Z"/><path d="M390.09,588.78a2,2,0,0,1-1.95-1.54,145.83,145.83,0,0,1-.41-66.28,141.72,141.72,0,0,1,7.32-22.74,2,2,0,0,1,3.69,1.54,138.06,138.06,0,0,0-7.11,22.1,141.74,141.74,0,0,0,.41,64.47,2,2,0,0,1-1.5,2.4A1.73,1.73,0,0,1,390.09,588.78Z"/><path class="cls-3" d="M361.5,463.72a43.68,43.68,0,0,0-7.11-7.26l-.11-.1a69.75,69.75,0,0,1-12.76-15.06c-3.12-5-5-10.12-8.06-18-1.53-3.92-2.61-7-3.21-8.72-7.13-20.48-11.81-38.84-19.05-41.48a13.78,13.78,0,0,0-3.37-.69,11.49,11.49,0,0,0-8.52,2.69,10.41,10.41,0,0,0-2,2.29c-2.8,4.45-1.41,10.9,1.46,23.61.46,2,.87,3.65,1.14,4.75l5.81,26.64s-14.28,3.23-13.48,14.55c0,0-13.2-7.82-18.32,7.54,0,0-16.7,1.35-11.85,19.67,0,0,6.73,24.52,16.7,25.33,0,0-1.88,38.26,29.91,55l52-6.54,3.42-14.82c9-39,4.94-51.65,3.43-56.33A58,58,0,0,0,361.5,463.72Z"/><path d="M315.42,532.79a2,2,0,0,1-1.62-.82A57.07,57.07,0,0,1,303,504.15c-2.27-23,10.87-40,16.25-45.85l-4.17-10.76c-.41-1.09-.94-2.48-1.53-3.86-3.31-7.69-4.8-14.15-4.42-19.21a11.34,11.34,0,0,1,4.07-7.93,11.09,11.09,0,0,1,8.38-2.5c9.06,1,14.48,11.36,14.71,11.79a2,2,0,1,1-3.56,1.84h0c0-.09-4.67-8.89-11.59-9.65a7.13,7.13,0,0,0-5.39,1.6,7.34,7.34,0,0,0-2.63,5.15c-.33,4.41,1.05,10.24,4.1,17.33.63,1.45,1.18,2.91,1.6,4l5.08,13.1-.89.92c-4.33,4.49-18.27,20.9-16,43.62a53.08,53.08,0,0,0,10,25.85,2,2,0,0,1-.43,2.79A2,2,0,0,1,315.42,532.79Z"/><path class="cls-3" d="M428.7,730.3a110.34,110.34,0,0,0-40.09,4.76c-48.21,15.19-69.6,59.71-74.14,69.79l114.23.59Z"/><path d="M430.7,807.45l-119.32-.62,1.26-2.8c7.46-16.52,29.72-56.49,75.37-70.88a112.31,112.31,0,0,1,40.81-4.85l1.88.12Zm-113.1-4.58,109.1.56V732.19A107.78,107.78,0,0,0,389.21,737C347.5,750.11,325.93,785.5,317.6,802.87Z"/><path d="M297.53,505a12.91,12.91,0,0,1-5.65-1.24,13.47,13.47,0,0,1-5.39-4.79,7.63,7.63,0,0,1-2.51,2,7.87,7.87,0,0,1-5.87.35,2,2,0,0,1,1.37-3.76,3.92,3.92,0,0,0,2.76-.19,5.41,5.41,0,0,0,2.37-3.45l2-6.51,1.87,6.54s1.33,4.37,5.19,6.19c2.74,1.3,6.22,1.07,10.34-.67a2,2,0,1,1,1.56,3.68A20.78,20.78,0,0,1,297.53,505Z"/><path d="M286.52,496.52a2,2,0,0,1-1.9-1.4L272,455.06a2,2,0,0,1,3.82-1.2l12.57,40.06a2,2,0,0,1-1.31,2.51A2,2,0,0,1,286.52,496.52Z"/><path d="M306.32,488.23a2,2,0,0,1-1.88-1.33l-14.05-39.31a2,2,0,1,1,3.77-1.35l14,39.32a2,2,0,0,1-1.89,2.67Z"/><rect class="cls-3" x="664.74" y="267.11" width="199.57" height="68.71" rx="34.36"/><path d="M830,337.83H699.09a36.36,36.36,0,0,1,0-72.72H830a36.36,36.36,0,0,1,0,72.72ZM699.09,269.11a32.36,32.36,0,0,0,0,64.72H830a32.36,32.36,0,0,0,0-64.72Z"/><circle class="cls-6" cx="710.15" cy="301.47" r="11.19"/><circle class="cls-6" cx="764.52" cy="301.47" r="11.19"/><circle class="cls-6" cx="818.89" cy="301.47" r="11.19"/><rect class="cls-3" x="89.14" y="455.46" width="110.67" height="110.67" rx="23.56"/><path d="M176.24,568.13H112.7a25.6,25.6,0,0,1-25.56-25.57V479a25.6,25.6,0,0,1,25.56-25.57h63.54A25.6,25.6,0,0,1,201.81,479v63.53A25.6,25.6,0,0,1,176.24,568.13ZM112.7,457.46A21.58,21.58,0,0,0,91.14,479v63.53a21.59,21.59,0,0,0,21.56,21.57h63.54a21.6,21.6,0,0,0,21.57-21.57V479a21.59,21.59,0,0,0-21.57-21.57Z"/><path class="cls-2" d="M175.34,492.71a13.74,13.74,0,0,0-5.27-5.37c-10.21-5.71-20.52-2.17-25.57,5.25-5.12-7.51-15.63-11.06-26-5a12.85,12.85,0,0,0-4.57,4.52c-4.69,7.88-3.77,15.79.17,21.42a3.25,3.25,0,0,0,.23.29l0,.05c.08.11,5.1,5.93,8.24,9.11a249.15,249.15,0,0,0,18.83,16.58,4.75,4.75,0,0,0,6,0c5.65-4.51,10.24-8.42,13.65-11.41a76.87,76.87,0,0,0,7.36-7C173.31,515.74,184.1,508.65,175.34,492.71Z"/><rect class="cls-3" x="670.16" y="413.9" width="262.29" height="280.77" rx="33.62"/><path d="M898.83,696.67H703.78a35.66,35.66,0,0,1-35.62-35.62V447.52a35.66,35.66,0,0,1,35.62-35.62H898.83a35.66,35.66,0,0,1,35.62,35.62V661.05A35.66,35.66,0,0,1,898.83,696.67ZM703.78,415.9a31.66,31.66,0,0,0-31.62,31.62V661.05a31.66,31.66,0,0,0,31.62,31.62H898.83a31.66,31.66,0,0,0,31.62-31.62V447.52a31.65,31.65,0,0,0-31.62-31.62Z"/><rect class="cls-1" x="695.89" y="519.49" width="53.51" height="53.51" rx="13.71"/><rect class="cls-1" x="695.89" y="600.72" width="53.51" height="53.51" rx="13.71"/><path d="M903.21,533.23H782.43a2,2,0,1,1,0-4H903.21a2,2,0,0,1,0,4Z"/><path d="M856.88,562.68H782.43a2,2,0,0,1,0-4h74.45a2,2,0,0,1,0,4Z"/><path d="M903.21,614.75H782.43a2,2,0,1,1,0-4H903.21a2,2,0,0,1,0,4Z"/><path d="M856.88,644.2H782.43a2,2,0,0,1,0-4h74.45a2,2,0,0,1,0,4Z"/><path class="cls-2" d="M743.61,451.53a9.3,9.3,0,0,0-3.61-3.67c-7-3.92-14.06-1.49-17.52,3.6-3.51-5.15-10.71-7.58-17.8-3.45a8.85,8.85,0,0,0-3.12,3.11c-3.22,5.39-2.59,10.81.11,14.67a1.56,1.56,0,0,0,.16.2l0,0c.06.08,3.5,4.07,5.65,6.25,1.84,1.85,6.38,6.09,12.9,11.35a3.26,3.26,0,0,0,4.09,0c3.87-3.1,7-5.78,9.35-7.82a54.35,54.35,0,0,0,5-4.78C742.22,467.32,749.62,462.46,743.61,451.53Z"/><path class="cls-4" d="M659.18,825.89H442.58a25.16,25.16,0,0,1-25.17-25.16V759.2a55.88,55.88,0,0,1,55.87-55.87H707.8a37,37,0,0,1,37,37h0A85.59,85.59,0,0,1,659.18,825.89Z"/><path class="cls-4" d="M324.23,829.86h0a68.29,68.29,0,0,1-66.86-69.7l3.73-179.45a38.88,38.88,0,0,1,39.67-38.05l58.85,1.23a38.85,38.85,0,0,1,38,39.66L393.93,763A68.29,68.29,0,0,1,324.23,829.86Z"/><path d="M644.5,703.32H590.2a2,2,0,0,1,0-4h54.3a2,2,0,0,1,0,4Z"/><path d="M581.8,412.57A14.54,14.54,0,1,1,596.34,398,14.55,14.55,0,0,1,581.8,412.57Zm0-25.08A10.54,10.54,0,1,0,592.34,398,10.55,10.55,0,0,0,581.8,387.49Z"/><path d="M397.9,588.78a2,2,0,0,1-2-2C395.64,546.87,363,546,361.63,546a2,2,0,0,1,0-4c.38,0,37.94.87,38.23,44.79a2,2,0,0,1-2,2Z"/><path d="M514.82,501.12h-62a2,2,0,0,1,0-4h62a2,2,0,0,1,0,4Z"/><path d="M456.06,818.12a2,2,0,0,1-2-2V725.4a2,2,0,0,1,4,0v90.72A2,2,0,0,1,456.06,818.12Z"/><path d="M373.65,580.28H282.94a2,2,0,0,1,0-4h90.71a2,2,0,0,1,0,4Z"/><path d="M155.82,715.89a2,2,0,0,1-1.88-1.31c-11.6-31.64-35.58-57.33-35.82-57.58a2,2,0,1,1,2.91-2.75c.24.26,24.78,26.52,36.67,59a2,2,0,0,1-1.19,2.56A1.87,1.87,0,0,1,155.82,715.89Z"/><path d="M167.14,719.15a2,2,0,0,1-2-2V689.76a2,2,0,0,1,4,0v27.39A2,2,0,0,1,167.14,719.15Z"/><path class="cls-6" d="M226.07,758.34h0a24.7,24.7,0,0,0-24.69-24.69h-5.5V715H127.82v18.66h-5.5a24.69,24.69,0,0,0-24.69,24.69h0A24.68,24.68,0,0,0,122.32,783a24.68,24.68,0,0,0-24.69,24.68h0a24.68,24.68,0,0,0,24.69,24.69h79.06a24.69,24.69,0,0,0,24.69-24.69h0A24.69,24.69,0,0,0,201.38,783,24.69,24.69,0,0,0,226.07,758.34Z"/><path d="M202.42,785.14H174.53a2,2,0,1,1,0-4h27.89a2,2,0,0,1,0,4Z"/><path d="M135.44,785h-14.6a2,2,0,0,1,0-4h14.6a2,2,0,1,1,0,4Z"/><ellipse cx="161.86" cy="713.58" rx="34.65" ry="7.22"/><circle class="cls-5" cx="167.14" cy="673.41" r="16.35"/><circle class="cls-5" cx="113.69" cy="648.94" r="17.52"/><path d="M324.61,397.54c-2-5.46-4.89-12.47-8.95-18.33-3.44-5-7.37-7.1-11.69-6.35a8.54,8.54,0,0,0-6.17,3.86c-3.41,5.47-1.14,15.12,0,19l.15.5-3.81,1.21-.18-.59c-1.59-5.48-3.66-15.65.45-22.24a12.46,12.46,0,0,1,8.88-5.69c5.91-1,11.33,1.74,15.67,8s7.29,13.54,9.41,19.21Z"/></svg>