<svg id="Layer_1" data-name="Layer 1" xmlns="http://www.w3.org/2000/svg" viewBox="0 0 1000 1000"><defs><style>.cls-1{fill:#fff;}.cls-2{fill:#c7b8f8;}.cls-3{fill:#ffc1eb;}.cls-4{fill:#ffbb45;}.cls-5{fill:#fb6d6d;}.cls-6{fill:#6dc8c2;}</style></defs><path class="cls-1" d="M628.69,422.72,513.4,417.39s-28.14-5.31-48.89,35.75c0,0-3,7.61,5.76,10.38,0,0,1.62,11.76,12.92,5.53,0,0,6.92,10.33,16.84,1.82,0,0,9,6,31.36-9.89a311.66,311.66,0,0,0,73.06,21.85q7.31,1.23,14.35,2.07l18,2.86a46.89,46.89,0,0,0,53.68-38.94Z"/><path d="M644.27,490.36a50.08,50.08,0,0,1-7.79-.62l-18-2.87c-4.73-.56-9.59-1.26-14.37-2.07a313.81,313.81,0,0,1-72.48-21.54c-18.21,12.68-27.88,11.25-31.33,10-3.14,2.37-6.35,3.35-9.57,2.91a13.8,13.8,0,0,1-8.08-4.57c-3.47,1.58-6.51,1.74-9,.47-3.23-1.63-4.56-5.13-5.05-7a10.06,10.06,0,0,1-5.66-4.94,10.51,10.51,0,0,1-.25-7.69l.08-.16c20.64-40.82,48.35-37.27,50.9-36.84l115.52,5.34,63.56,26.85-.24,1.55a48.93,48.93,0,0,1-48.19,41.22ZM531.16,458.69l1,.46a310.82,310.82,0,0,0,72.59,21.71c4.71.79,9.51,1.48,14.25,2.05l18.08,2.88A44.89,44.89,0,0,0,688.23,450l-60-25.33-115.07-5.33-.14,0c-1.08-.2-26.93-4.39-46.68,34.58a6.33,6.33,0,0,0,.16,4.47,6.78,6.78,0,0,0,4.36,3.21l1.21.38.17,1.25s.6,3.94,3.16,5.22c1.65.81,3.94.43,6.81-1.16l1.61-.89,1,1.53s2.57,3.72,6.45,4.23c2.38.33,4.88-.63,7.42-2.82l1.16-1,1.26.85s8.48,4.8,29.09-9.86Z"/><path d="M470.27,466a2.54,2.54,0,0,1-1.34-.39,2.5,2.5,0,0,1-.77-3.45l12.59-19.89A2.5,2.5,0,1,1,485,445l-12.59,19.89A2.47,2.47,0,0,1,470.27,466Z"/><path d="M483.19,471.55a2.49,2.49,0,0,1-2.07-3.9l12.27-18a2.5,2.5,0,1,1,4.13,2.82l-12.27,18A2.47,2.47,0,0,1,483.19,471.55Z"/><path d="M500,473.37a2.46,2.46,0,0,1-1.45-.47,2.49,2.49,0,0,1-.57-3.49l11.32-15.75a2.5,2.5,0,1,1,4.06,2.92l-11.33,15.75A2.48,2.48,0,0,1,500,473.37Z"/><path class="cls-2" d="M543,811.68,449.69,850a6.89,6.89,0,0,0-4.27,6.6h0a6.89,6.89,0,0,0,7,6.67l111-2-1.29,12.7a5.54,5.54,0,0,0,5,6.1l24.59,2.22a5.56,5.56,0,0,0,6-4.59l9.66-55.48Z"/><path class="cls-2" d="M805,801.4l-38.9,93a6.9,6.9,0,0,0,1.65,7.69h0a6.9,6.9,0,0,0,9.67-.25l77-79.89,8.06,9.9a5.55,5.55,0,0,0,7.87.75l19-15.82a5.56,5.56,0,0,0,1-7.46l-32.4-46.06Z"/><path d="M544,541.84a2.49,2.49,0,0,1-2-4l48.12-63.38a8.82,8.82,0,0,0-7.08-14.09H510.71a2.5,2.5,0,1,1,0-5h72.37a13.83,13.83,0,0,1,11.08,22.1L546,540.86A2.53,2.53,0,0,1,544,541.84Z"/><path d="M664.36,512.56a54,54,0,0,0-20.67,72.2L764.1,810a20.25,20.25,0,0,0,13.23,10.33c9,2.09,22.35.78,32.29-19.08.85.36,15.87,6.51,29.18-2.89,11.6-8.2,12.43-21.53,12.5-23.15,1.34.46,10.38,3.39,19.05-1.8.36-.22.72-.44,1.06-.68,9.06-6.16,11.14-18.68,5.14-27.85-43.7-66.86-94.08-144.49-140.08-215a54,54,0,0,0-72.11-17.29Z"/><path d="M701,280l-21.74,8.88A36.26,36.26,0,0,1,632,269l-12-29.29a20.45,20.45,0,0,1,11.2-26.66l31.68-12.94A36.26,36.26,0,0,1,710.14,220l7.91,19.35A31.19,31.19,0,0,1,701,280Z"/><path d="M641,249.21a21,21,0,0,1-19.08-12.33l-.38-.83.38-.82a20.56,20.56,0,0,1,9.5-9.85L653,214.61A21.69,21.69,0,0,1,682.39,225l4.79,10.5-.58.91a20.89,20.89,0,0,1-30,5.74A21,21,0,0,1,641,249.21Zm-15-13.15a16.93,16.93,0,0,0,28.76,2.13L656,236.4l1.66,1.47a16.9,16.9,0,0,0,25-2.7l-3.88-8.49a17.68,17.68,0,0,0-24-8.49L633.17,229A16.58,16.58,0,0,0,625.94,236.06Z"/><path class="cls-1" d="M703.12,273.88l-8.25-16.71A11.83,11.83,0,0,0,686.58,235a10.89,10.89,0,0,0-1.51.69l-.16-.34a18.9,18.9,0,0,1-28.6,4,18.92,18.92,0,0,1-32.6-3.3,18.45,18.45,0,0,0-.53,14.13l1.92,5.18a29.56,29.56,0,0,1,1.3,15.92v0a4.5,4.5,0,0,0,3.13,5.25l3.86,1.1,4.08,11a16.14,16.14,0,0,0,23,8.47l10-5.61L679.42,309l32.43-16.59Z"/><path d="M678.55,311.65l-8.88-17.36-8.21,4.6a18.16,18.16,0,0,1-25.88-9.52l-3.72-10.05L629,278.5a6.45,6.45,0,0,1-4.56-7.5l0-.13a27.29,27.29,0,0,0,.44-7.17,27.68,27.68,0,0,0-1.65-7.63l-1.93-5.19a20.38,20.38,0,0,1,.59-15.65l1.83-4,1.81,4a16.94,16.94,0,0,0,29.17,3L656,236.4l1.66,1.47a16.91,16.91,0,0,0,25.58-3.58l2-3.12.87,1.9a13.82,13.82,0,0,1,17.59,8.22,13.87,13.87,0,0,1-6.1,16.82L704.93,273l9.56,20.24Zm-7.21-22.88,8.95,17.5,28.92-14.8-7.89-16.72-9.22-18.67,2.06-.78a9.83,9.83,0,0,0-6.89-18.42,10.19,10.19,0,0,0-1.25.58l-.19.11a20.89,20.89,0,0,1-29.21,4.6,20.91,20.91,0,0,1-32.34-1.28,16.3,16.3,0,0,0,.77,8.6l1.93,5.19a31.42,31.42,0,0,1,1.38,17,2.52,2.52,0,0,0,1.71,3L634.9,276l4.43,12a14.15,14.15,0,0,0,20.17,7.42Z"/><circle cx="711.85" cy="181.32" r="29.69"/><circle cx="757.62" cy="130.02" r="43.37"/><path d="M624.8,471.74,506.06,793.38c-3.61,9-1.36,19.08,5.3,24.84,8.2,7.09,21.79,6.53,30.38-2.36.52,1.07,6.37,12.43,19.46,14.44A26.3,26.3,0,0,0,586,820.1a26.2,26.2,0,0,0,44.83,3.8,27.6,27.6,0,0,0,4.19-8.62l71-237s36.84-28.53,28.32-88.94Z"/><circle cx="646.46" cy="260" r="2.87"/><path d="M670.08,289.36l5,9.79,13.48-18.39a.7.7,0,0,0-.9-1Z"/><path d="M648.46,284.43a9.77,9.77,0,0,1-2.54-.3,2,2,0,0,1,1.06-3.85,6.61,6.61,0,0,0,4.59-.65c1.5-.92,2.54-2.64,3.09-5.12a2,2,0,0,1,3.91.88c-.81,3.6-2.48,6.19-5,7.69A9.93,9.93,0,0,1,648.46,284.43Z"/><path d="M690.84,250.87a4,4,0,1,1,3.73-5.36h0a4,4,0,0,1-2.35,5.11A3.91,3.91,0,0,1,690.84,250.87Zm0-5a1,1,0,1,0,.92.64h0A1,1,0,0,0,690.84,245.91Z"/><path d="M688.67,249.72a1.51,1.51,0,0,1-1.28-.71,6.52,6.52,0,0,1-.21-6.49,6.76,6.76,0,0,1,5.17-3.38,1.53,1.53,0,0,1,1.62,1.37,1.5,1.5,0,0,1-1.37,1.62,3.74,3.74,0,0,0-2.78,1.81,3.51,3.51,0,0,0,.12,3.49,1.49,1.49,0,0,1-.48,2.06A1.45,1.45,0,0,1,688.67,249.72Z"/><path class="cls-3" d="M672.36,313a58.19,58.19,0,0,1-7.9,3.13,24.81,24.81,0,0,0-15,12.58l-24.78,49.07s-16.25,31.11,6.23,44.95l119.48,7.81L772.32,311s-17.14-18.67-54-16.58l-5.56-8.61a3.76,3.76,0,0,0-4.84-1.34l-32.76,16.29a3.76,3.76,0,0,0-1.87,4.63l2.19,6.21Z"/><path class="cls-1" d="M756.38,303.66h0a32.56,32.56,0,0,0-37.27,27l-15.2,95.5-115.29-5.34s-28.14-5.31-48.89,35.75c0,0-3,7.61,5.76,10.38,0,0,1.62,11.76,12.92,5.53,0,0,6.92,10.33,16.84,1.82,0,0,9,6,31.36-9.89a311.19,311.19,0,0,0,73.06,21.85q7.3,1.23,14.35,2.07h0l18,2.86a46.89,46.89,0,0,0,53.68-38.94l17.72-111.35A32.57,32.57,0,0,0,756.38,303.66Z"/><path d="M719.49,493.83a50.17,50.17,0,0,1-7.79-.62l-18-2.87c-4.74-.56-9.6-1.26-14.37-2.07a313.81,313.81,0,0,1-72.48-21.54c-18.21,12.68-27.88,11.25-31.33,10-3.14,2.37-6.35,3.35-9.57,2.91a13.8,13.8,0,0,1-8.08-4.57c-3.47,1.58-6.51,1.74-9,.47-3.23-1.63-4.55-5.13-5.05-7a10.06,10.06,0,0,1-5.66-4.94,10.42,10.42,0,0,1-.24-7.69l.07-.16c20.64-40.82,48.34-37.27,50.9-36.84l113.38,5.25,14.91-93.73a34.56,34.56,0,0,1,68.27,10.86L767.68,452.61a48.93,48.93,0,0,1-48.19,41.22ZM606.38,462.16l1,.46A310.82,310.82,0,0,0,680,484.33c4.7.79,9.5,1.48,14.25,2.05l18.08,2.88A44.91,44.91,0,0,0,763.73,452l17.72-111.36a30.59,30.59,0,0,0-25.38-35h0a30.61,30.61,0,0,0-35,25.38l-15.47,97.26-117.36-5.46c-1.09-.2-26.93-4.39-46.68,34.58a6.39,6.39,0,0,0,.16,4.47,6.78,6.78,0,0,0,4.36,3.21l1.21.38.17,1.25s.6,4,3.16,5.22c1.64.81,3.94.43,6.81-1.16l1.61-.88,1,1.52s2.58,3.72,6.45,4.23c2.38.31,4.88-.63,7.42-2.82l1.16-1,1.26.85s8.48,4.8,29.09-9.86Z"/><path d="M545.49,469.49a2.51,2.51,0,0,1-2.11-3.84L556,445.76a2.5,2.5,0,1,1,4.22,2.67L547.6,468.32A2.47,2.47,0,0,1,545.49,469.49Z"/><path d="M558.41,475a2.49,2.49,0,0,1-2.07-3.9l12.27-18a2.5,2.5,0,1,1,4.13,2.81l-12.26,18A2.51,2.51,0,0,1,558.41,475Z"/><path d="M575.24,476.84a2.46,2.46,0,0,1-1.45-.47,2.5,2.5,0,0,1-.57-3.49l11.32-15.75a2.5,2.5,0,1,1,4.06,2.92L577.28,475.8A2.51,2.51,0,0,1,575.24,476.84Z"/><path class="cls-1" d="M683,657.2a1.9,1.9,0,0,1-.58-.09,2,2,0,0,1-1.34-2.49l23.21-77.51.51-.39c22.15-17,27.09-50,27.13-50.37a2,2,0,0,1,4,.57c-.2,1.41-5.12,34.52-28.14,52.58l-22.84,76.27A2,2,0,0,1,683,657.2Z"/><path d="M726.31,430.26h-.17l-22.4-1.57a2.5,2.5,0,0,1,.35-5l22.4,1.57a2.5,2.5,0,0,1-.18,5Z"/><rect class="cls-1" x="269.12" y="165.61" width="191.29" height="105.46" rx="21.12"/><path d="M439.29,273.07h-149a23.15,23.15,0,0,1-23.12-23.13v-63.2a23.15,23.15,0,0,1,23.12-23.13H439.29a23.15,23.15,0,0,1,23.12,23.13v63.2A23.15,23.15,0,0,1,439.29,273.07Zm-149-105.46a19.15,19.15,0,0,0-19.12,19.13v63.2a19.15,19.15,0,0,0,19.12,19.13H439.29a19.15,19.15,0,0,0,19.12-19.13v-63.2a19.15,19.15,0,0,0-19.12-19.13Z"/><path d="M304,201.86a2,2,0,0,1-2-2c-.13-5.67,2-9.07,3.78-10.92a10.9,10.9,0,0,1,7.62-3.44,10.62,10.62,0,0,1,7.49,3.23c1.84,1.85,4,5.27,3.94,11.11a2,2,0,0,1-2,2h0a2,2,0,0,1-2-2c0-3.52-.91-6.37-2.77-8.23a6.73,6.73,0,0,0-4.59-2.06h0a7,7,0,0,0-4.78,2.22c-1.81,1.87-2.73,4.65-2.65,8a2,2,0,0,1-1.95,2.05Z"/><path class="cls-3" d="M332.41,252.49H294.67a6.53,6.53,0,0,1-6.43-7.41l5.26-39.55a6.5,6.5,0,0,1,6.43-5.67h26.33a6.52,6.52,0,0,1,6.41,5.53l6.15,39.55A6.52,6.52,0,0,1,332.41,252.49Z"/><rect class="cls-4" x="358.3" y="193.83" width="81.81" height="14.39" rx="7.2"/><path d="M436.7,227.11h-75a2,2,0,0,1,0-4h75a2,2,0,0,1,0,4Z"/><path d="M426.14,244.21H361.72a2,2,0,0,1,0-4h64.42a2,2,0,0,1,0,4Z"/><rect class="cls-1" x="491.16" y="120.59" width="80.39" height="80.39" rx="14.17"/><path d="M557.38,203H505.33a16.18,16.18,0,0,1-16.17-16.17V134.76a16.18,16.18,0,0,1,16.17-16.17h52.05a16.18,16.18,0,0,1,16.17,16.17v52.05A16.18,16.18,0,0,1,557.38,203Zm-52.05-80.39a12.18,12.18,0,0,0-12.17,12.17v52.05A12.18,12.18,0,0,0,505.33,199h52.05a12.18,12.18,0,0,0,12.17-12.17V134.76a12.18,12.18,0,0,0-12.17-12.17Z"/><rect class="cls-3" x="507.79" y="145.13" width="47.14" height="41.62" rx="8.72"/><path class="cls-5" d="M554.92,160.74H507.79a2,2,0,1,1,0-4h47.13a2,2,0,0,1,0,4Z"/><path class="cls-5" d="M534.46,147.13h-3.11c-12.1,0-15.6-4.36-16.41-8a5.17,5.17,0,0,1,.92-4.22,5.1,5.1,0,0,1,3.76-2.05c8-.56,13.33,11,13.55,11.45Zm-14.29-10.3h-.28a1.14,1.14,0,0,0-.83.46,1.16,1.16,0,0,0-.21.95c.58,2.62,3.74,4.25,9,4.73C526.06,140.14,523.2,136.83,520.17,136.83Z"/><path class="cls-5" d="M531.19,147.13h-3.1l1.28-2.83c.23-.49,5.55-12,13.55-11.45a5.16,5.16,0,0,1,4.68,6.27C546.8,142.77,543.3,147.13,531.19,147.13Zm11.19-10.3c-3,0-5.88,3.34-7.7,6.15,5.28-.48,8.44-2.11,9-4.73a1.16,1.16,0,0,0-.21-.95,1.14,1.14,0,0,0-.84-.46Z"/><path class="cls-5" d="M543.92,169.27a2,2,0,0,1-1.74-1l-11.1-19.14-10.55,18.4a2,2,0,1,1-3.47-2l14-24.42,14.58,25.15a2,2,0,0,1-.72,2.73A2,2,0,0,1,543.92,169.27Z"/><path class="cls-5" d="M531.56,188.74a2,2,0,0,1-2-2V146.45a2,2,0,0,1,4,0v40.29A2,2,0,0,1,531.56,188.74Z"/><path class="cls-5" d="M618.52,236.19c-3.34,0-6.46-2-8.82-5.59a27.05,27.05,0,0,1-.8-25.78c2.18-3.86,5.27-6,8.72-6.15s6.67,1.88,9.08,5.6a25.09,25.09,0,0,1,3.68,12.78c.32,10.52-4.77,18.93-11.59,19.14Zm-.65-33.52h-.13c-2,.06-3.89,1.53-5.36,4.12a23.13,23.13,0,0,0,.67,21.63c1.63,2.49,3.62,3.81,5.61,3.77,4.44-.14,8-7,7.72-15h0a21.19,21.19,0,0,0-3-10.73C621.76,204,619.82,202.67,617.87,202.67Z"/><path class="cls-5" d="M648.53,229.13c-7.89,0-14.31-8.42-14.31-18.76s6.42-18.77,14.31-18.77,14.33,8.42,14.33,18.77S656.43,229.13,648.53,229.13Zm0-33.53c-5.69,0-10.31,6.62-10.31,14.77s4.62,14.76,10.31,14.76,10.33-6.62,10.33-14.76S654.23,195.6,648.53,195.6Z"/><path class="cls-5" d="M628.21,217a2,2,0,0,1-.5-3.93l7.21-1.87a2,2,0,1,1,1,3.87l-7.21,1.87A2.2,2.2,0,0,1,628.21,217Z"/><path class="cls-5" d="M683.91,212.37h-23a2,2,0,0,1,0-4h23a2,2,0,0,1,0,4Z"/><path d="M677.17,313.75a2.5,2.5,0,0,1-1-4.78l26.74-12.1a2.5,2.5,0,0,1,2.06,4.56l-26.74,12.1A2.48,2.48,0,0,1,677.17,313.75Z"/><path d="M347.77,541.61a2.49,2.49,0,0,1-1.8-4.23l63.69-66.51c1.38-1.45,2.66-3,4-4.56l.4-.48a29.67,29.67,0,0,1,22.63-10.47h27.51a2.5,2.5,0,0,1,0,5H436.71a24.63,24.63,0,0,0-18.81,8.71l-.41.48c-1.34,1.58-2.73,3.22-4.22,4.77l-63.69,66.52A2.51,2.51,0,0,1,347.77,541.61Z"/><path class="cls-3" d="M363.12,654.71l-59.06-9.92a27.71,27.71,0,0,1-21.31-37.13L395.53,309.9a27.7,27.7,0,0,1,28.91-17.72l59.52,6.5A27.7,27.7,0,0,1,506.88,336L393.64,637.15A27.69,27.69,0,0,1,363.12,654.71Z"/><path class="cls-5" d="M328.27,650.86a1.84,1.84,0,0,1-.69-.13,2,2,0,0,1-1.19-2.56l129.76-353a2,2,0,1,1,3.75,1.38l-129.76,353A2,2,0,0,1,328.27,650.86Z"/><path class="cls-5" d="M468,441.49h-.23L351.34,428a2,2,0,1,1,.46-4l116.38,13.52a2,2,0,0,1-.23,4Z"/><path class="cls-5" d="M408.08,434a3.75,3.75,0,0,1-2.41-.88c-17.91-15-28.61-27.59-31.81-37.38a8.39,8.39,0,0,1,10.84-10.51c16.08,5.72,24.25,32.79,27,44.15h0a3.66,3.66,0,0,1-1.66,4.05A3.72,3.72,0,0,1,408.08,434Zm-.26-3.67Zm-26-41.61a4.34,4.34,0,0,0-3,1.26,4.29,4.29,0,0,0-1.09,4.51c2,6.18,8.85,17.26,30,35.05-7.84-31.57-19.57-38.87-24.27-40.54A4.8,4.8,0,0,0,381.8,388.68Z"/><path class="cls-5" d="M354.66,490.37a2,2,0,0,1-1.58-3.22c1.29-1.68,31.76-41,51.86-55.87,2.49-3.07,27.34-33,47.88-29.85a8.39,8.39,0,0,1,4.58,14.39c-7.95,7.59-24.85,13.92-50.24,18.8-19.67,14.62-50.6,54.57-50.92,55A2,2,0,0,1,354.66,490.37Zm95-85.17c-14.06,0-30.69,16.38-38,24.42,26.84-5.65,38.18-12.13,43-16.7a4.31,4.31,0,0,0,1.18-4.49,4.38,4.38,0,0,0-3.6-3A16.39,16.39,0,0,0,449.69,405.2Z"/><path class="cls-5" d="M418,502h-.1a2,2,0,0,1-1.9-2.1c1.26-25.1-11.41-66.16-11.54-66.57a2,2,0,0,1,3.82-1.19c.53,1.71,13,42.16,11.72,68A2,2,0,0,1,418,502Z"/><rect class="cls-6" x="199.04" y="460.09" width="185" height="140.47" rx="12.98" transform="translate(583.09 1060.66) rotate(-180)"/><path d="M233.2,602.56a2,2,0,0,1-2-2V525.47a2,2,0,0,1,4,0v75.09A2,2,0,0,1,233.2,602.56Z"/><rect class="cls-1" x="333.29" y="474.17" width="37.91" height="25.9" rx="5.46"/><path d="M368.08,516.27H337.53a2,2,0,0,1,0-4h30.55a2,2,0,0,1,0,4Z"/><path d="M368.08,528.43H345.6a2,2,0,0,1,0-4h22.48a2,2,0,1,1,0,4Z"/><path d="M233.38,527.47h-.25c-4-.1-7.59-2.73-9.59-7l-22.28-52.2a2,2,0,0,1,3.68-1.57l22.25,52.14c1.32,2.83,3.59,4.59,6.05,4.66h.14c2.36,0,4.52-1.52,5.94-4.2l30.22-53a2,2,0,1,1,3.47,2l-30.19,53C240.73,525.12,237.21,527.47,233.38,527.47Z"/><path d="M275,602.07a2,2,0,0,1-2-2V481.8c.36-15.27-6.5-18.43-6.79-18.56a2,2,0,0,1-1.07-2.61,2,2,0,0,1,2.57-1.09c.4.16,9.72,4.08,9.29,22.31V600.07A2,2,0,0,1,275,602.07Z"/><rect class="cls-4" x="215.61" y="384.1" width="156.58" height="76" rx="7.66"/><path d="M283,461.52a2,2,0,0,1-2-2V385.86a2,2,0,0,1,4,0v73.66A2,2,0,0,1,283,461.52Z"/><path d="M257.6,430.12H233.77l-18.53-37.06a2,2,0,0,1,3.58-1.79l17.42,34.85h19.1l23.9-39.52a2,2,0,0,1,3.43,2.07Z"/><path d="M279.43,461.52a2,2,0,0,1-1.62-.82l-22.36-30.58H236.1l-16.16,25.06a2,2,0,0,1-2.77.59,2,2,0,0,1-.59-2.76l17.34-26.89h23.56L281,458.33a2,2,0,0,1-.44,2.8A2,2,0,0,1,279.43,461.52Z"/><path d="M471.62,854.48H173.35l-15.53-96.83H493.54Zm-294-5h290l19.66-86.83H163.68Z"/><path d="M318.71,855.77a2.5,2.5,0,0,1-2.5-2.5V762.32a2.5,2.5,0,0,1,5,0v90.95A2.5,2.5,0,0,1,318.71,855.77Z"/><ellipse cx="190.67" cy="853.27" rx="23.27" ry="23.47"/><circle cx="318.89" cy="853.27" r="23.47"/><ellipse cx="453.07" cy="853.27" rx="23.24" ry="23.47"/><path class="cls-2" d="M532.62,537.29H138.14c-12.48,0-21.76,13-19.08,26.71l39.87,203.86H491.79l59.83-200.53C556,552.58,546.35,537.29,532.62,537.29Z"/><line class="cls-1" x1="318.71" y1="707.31" x2="318.71" y2="559.23"/><path d="M318.71,709.81a2.5,2.5,0,0,1-2.5-2.5V559.23a2.5,2.5,0,0,1,5,0V707.31A2.5,2.5,0,0,1,318.71,709.81Z"/><rect class="cls-1" x="157.7" y="574.36" width="112.3" height="23.38" rx="11.69"/><path d="M907,403.27H819.8a17.47,17.47,0,0,1-17.45-17.46v-166a17.48,17.48,0,0,1,17.45-17.46H907a17.48,17.48,0,0,1,17.46,17.46v166A17.48,17.48,0,0,1,907,403.27ZM819.8,206.36a13.47,13.47,0,0,0-13.45,13.46v166a13.47,13.47,0,0,0,13.45,13.46H907a13.48,13.48,0,0,0,13.46-13.46v-166A13.48,13.48,0,0,0,907,206.36Z"/><rect class="cls-2" x="830.37" y="318.3" width="66.1" height="46.82" rx="7.91"/><path d="M894.68,337.09H832a2,2,0,0,1,0-4h62.7a2,2,0,0,1,0,4Z"/><path d="M851.31,359.49h-8a6.74,6.74,0,0,1,0-13.47h8a6.74,6.74,0,1,1,0,13.47Zm-8-9.47a2.74,2.74,0,0,0,0,5.47h8a2.74,2.74,0,1,0,0-5.47Z"/><rect class="cls-6" x="827.38" y="235.25" width="71.97" height="46.82" rx="9.26"/><path d="M863.36,270.65a12,12,0,1,1,12-12A12,12,0,0,1,863.36,270.65Zm0-20a8,8,0,1,0,8,8A8,8,0,0,0,863.36,250.62Z"/><path d="M899.46,270.7h-6.78a11.21,11.21,0,1,1,0-22.42h6.78v4h-6.78a7.21,7.21,0,1,0,0,14.42h6.78Z"/><path d="M834.26,270.7h-6.79v-4h6.79a7.21,7.21,0,0,0,0-14.42h-6.79v-4h6.79a11.21,11.21,0,0,1,0,22.42Z"/><path d="M814.49,829.6a2.08,2.08,0,0,1-.55-.07l-16.28-3.71a2.5,2.5,0,0,1,1.11-4.88l16.28,3.72a2.5,2.5,0,0,1-.56,4.94Z"/><path d="M808.73,843.26a2.2,2.2,0,0,1-.56-.07l-16.28-3.72A2.5,2.5,0,1,1,793,834.6l16.28,3.72a2.5,2.5,0,0,1-.56,4.94Z"/><path d="M522.93,840.36a2.48,2.48,0,0,1-1.87-.85L510,827a2.5,2.5,0,0,1,3.75-3.3l11,12.53a2.51,2.51,0,0,1-.22,3.53A2.56,2.56,0,0,1,522.93,840.36Z"/><path d="M506.68,847.49a2.46,2.46,0,0,1-1.88-.85l-11-12.52a2.5,2.5,0,1,1,3.75-3.31l11,12.53a2.49,2.49,0,0,1-1.87,4.15Z"/></svg>