<svg id="Layer_1" data-name="Layer 1" xmlns="http://www.w3.org/2000/svg" viewBox="0 0 1000 1000"><defs><style>.cls-1{fill:#c7b8f8;}.cls-2{fill:#fff;}.cls-3{fill:#6dc8c2;}.cls-4{fill:#ffbb45;}.cls-5{fill:#ffc1eb;}.cls-6{fill:#fb6d6d;}</style></defs><path class="cls-1" d="M527.1,252.73l-97.51-22.25a6,6,0,0,1-4.55-7.25l.81-3.56a6,6,0,0,1,7.25-4.55l97.5,22.25Z"/><path d="M568.65,390.69l-30.5-5.64a72.86,72.86,0,0,1-58.39-84.89L490,244.62a19.81,19.81,0,0,1,23.08-15.88l123.11,22.77A28.37,28.37,0,0,1,659,284.57L649.65,335A69.52,69.52,0,0,1,568.65,390.69Z"/><path class="cls-2" d="M508.34,238.21c-6.7-.4-10.62,1.44-12.75,2.84-13.17,8.62-5.83,31.08-21.73,54.21a64.85,64.85,0,0,1-5.14,6.53l-3.64,3.93a5.54,5.54,0,0,0-.16,7.34l4.94,5.8-2.5,30.6c-.23,2.66-1.68,22.48,12.77,35.14l1,.86a33.49,33.49,0,0,0,20.09,7.26l23.17.71v33.84h76.75l.76-70.54s17.49-3,20.67-20.21a29,29,0,0,0-6.66-24.39c-5.73-6.49-15.83-12-32.46-4.24A32.57,32.57,0,0,1,550,302.17c-11.35-10.16-10.52-24.69-10.39-26.46,0,0-12.88-3.82-19.07-8.12C515.26,263.92,509.51,256.2,508.34,238.21Z"/><path d="M603.15,429.27H522.42v-33.9l-21.24-.66A35.62,35.62,0,0,1,479.9,387c-.36-.3-.73-.6-1.09-.92-14.75-12.93-13.78-32.94-13.44-36.82l2.43-29.76-4.4-5.16a7.52,7.52,0,0,1,.21-10l3.64-3.94a61.53,61.53,0,0,0,5-6.31c7.72-11.21,9.77-22.14,11.58-31.78s3.41-18.19,10.71-23c3.71-2.43,8.41-3.49,14-3.15l1.76.11.12,1.75c.9,13.89,4.72,23.26,11.35,27.86,5.86,4.07,18.38,7.82,18.5,7.85l1.55.46-.12,1.61c-.19,2.52-.6,15.58,9.72,24.82a30.4,30.4,0,0,0,31.36,5.37c17.92-8.3,28.78-2,34.74,4.75a31.15,31.15,0,0,1,7.13,26.08c-2.8,15.16-16,20.13-20.66,21.43Zm-76.73-4h72.77L600,355l1.64-.28c.66-.11,16.16-3,19-18.61a27.08,27.08,0,0,0-6.19-22.7c-7.37-8.34-17.5-9.6-30.12-3.74l-.12.05a34.37,34.37,0,0,1-35.53-6.1c-10.24-9.18-11.18-21.61-11.11-26.5-3.64-1.16-13-4.34-18.15-7.93-7.37-5.11-11.72-14.89-12.93-29.07a17.6,17.6,0,0,0-9.79,2.56c-5.87,3.84-7.24,11.13-9,20.36-1.79,9.53-4,21.4-12.21,33.31a65.65,65.65,0,0,1-5.3,6.73l-3.67,4a3.54,3.54,0,0,0-.09,4.69l5.47,6.43-2.56,31.42c-.32,3.56-1.21,21.82,12.09,33.47.32.28.65.56,1,.82a31.68,31.68,0,0,0,18.89,6.81l25.11.78Z"/><path d="M596.68,343.9a8,8,0,1,1,8-8A8,8,0,0,1,596.68,343.9Zm0-12.06a4,4,0,1,0,4,4A4,4,0,0,0,596.68,331.84Z"/><path d="M590.65,337.87a2,2,0,0,1-2-1.93c-.14-4.13,1.09-7.47,3.67-9.93,5.12-4.89,13.67-4.27,14-4.23a2,2,0,1,1-.31,4h0c-.07,0-7.16-.5-11,3.15a8.62,8.62,0,0,0-2.43,6.9,2,2,0,0,1-1.93,2.06Z"/><circle cx="512.53" cy="303.1" r="4.73"/><path d="M524.3,391.53H561a1.42,1.42,0,0,1,.56,2.73L524.3,410.15Z"/><path d="M490.29,346.82a24.72,24.72,0,0,1-11.77-3.18,2,2,0,1,1,2-3.47c.56.32,13.31,7.44,20.39-3a2,2,0,0,1,3.31,2.25A16.11,16.11,0,0,1,490.29,346.82Z"/><path class="cls-1" d="M658.88,282.87,489.49,244.22h0a70.83,70.83,0,0,1,84.81-53.3l31.28,7.14a70.84,70.84,0,0,1,53.3,84.81Z"/><rect class="cls-3" x="496.32" y="410.15" width="133.29" height="48.38" rx="24.19" transform="translate(-28.75 40.06) rotate(-3.97)"/><rect class="cls-3" x="453.46" y="434.34" width="204.29" height="260.19"/><rect class="cls-4" x="117.89" y="519.55" width="373.15" height="217.47" rx="24.72"/><path class="cls-3" d="M569.78,821.05H487.65L628.36,434.34h49.47c57.29,0,97,57.07,77.21,110.81L682,742.84A119.66,119.66,0,0,1,569.78,821.05Z"/><path d="M422.18,739a2,2,0,0,1-2-2V620.76a2,2,0,0,1,4,0V737A2,2,0,0,1,422.18,739Z"/><path class="cls-3" d="M609.77,735.68c18.36-9.67,35.47-8.26,42.82-7.55a83,83,0,0,1,31.35,9.55,60.85,60.85,0,0,0,2.52-14.18c.33-5.81.91-30.8-18.25-48.17-13.18-12-28.6-13.87-34.48-14.28H418.64A49.69,49.69,0,0,0,369,710.73v60.63a49.69,49.69,0,0,0,49.69,49.69h152.6q2.89,0,5.76-.15a33.83,33.83,0,0,1-3.69-5.85c-10.21-20.71,4.52-46,7.54-51.14A72.39,72.39,0,0,1,609.77,735.68Z"/><path class="cls-5" d="M683.94,737.68c-3.4-1.81-40.26-20.64-74.17-2-29.88,16.42-48.15,56.78-36.46,79.37A42.78,42.78,0,0,0,577,820.9a119.88,119.88,0,0,0,106.94-83.22Z"/><rect class="cls-6" x="137.75" y="552.88" width="76.46" height="49.82" rx="11.48"/><path d="M205.66,623.53H144a2,2,0,1,1,0-4h61.63a2,2,0,0,1,0,4Z"/><path d="M189.37,642.36H144a2,2,0,1,1,0-4h45.34a2,2,0,0,1,0,4Z"/><path d="M421.79,622.76a20.9,20.9,0,0,1-17.2-9l-63-84.09a2,2,0,1,1,3.2-2.4l63.06,84.15a16.95,16.95,0,0,0,28.44-.8l47.32-83.14a2,2,0,1,1,3.47,2l-47.34,83.19a20.91,20.91,0,0,1-17.29,10.1Z"/><path d="M337.77,739a2,2,0,0,1-2-2V550.87c-.85-27.33,16.86-33,17.61-33.24a2,2,0,0,1,1.17,3.83h0c-.63.2-15.53,5.15-14.78,29.35V737A2,2,0,0,1,337.77,739Z"/><rect class="cls-5" x="185.85" y="417" width="274.93" height="102.14" rx="10.22"/><rect class="cls-6" x="185.85" y="463.08" width="274.93" height="9.97"/><rect class="cls-4" x="263.36" y="332.71" width="183.87" height="84.69" rx="12.76"/><rect class="cls-3" x="263.36" y="368.29" width="183.87" height="6.77"/><rect class="cls-3" x="348.85" y="332.71" width="8.11" height="84.69"/><rect class="cls-1" x="333.81" y="256.08" width="101.19" height="76.64" rx="12.29"/><path d="M383.67,298.34a18.5,18.5,0,0,1-12.73-5.08l-34.57-32.42a2,2,0,1,1,2.74-2.92l34.57,32.43a14.52,14.52,0,0,0,19.76.2l36.3-32.66a2,2,0,0,1,2.67,3l-36.3,32.66A18.56,18.56,0,0,1,383.67,298.34Z"/><path class="cls-2" d="M347.59,704.57c.13,2.66-44.66.28-48.09.1-7.26-.37-14.51-.78-21.76-1.27-7.74-.52-15.54-2.34-23.28-2.12-3.61.11-7.14,1.12-9,4.53-4.2,7.89,11.23,13.42,16.25,15.15,9.67,3.32,16.91,3.42,16.9,4.54,0,.72-3,1.47-8.2,1.94-13.56,1.24-39.32-1.64-63.25-10.71-5.52-2.09-11-5.22-16.91-6.08a8.64,8.64,0,0,0-8.22,3c-1.84,2.47-2.26,6.86-.24,9.35a17.06,17.06,0,0,0,4,3.09,16.44,16.44,0,0,0-3.71,2.25c-2.85,2.7-2,7.67,0,10.6,2.66,3.93,7.1,6.48,11,8.94a150.3,150.3,0,0,0,14.17,7.89,11.5,11.5,0,0,1,2.06,1.16,14.87,14.87,0,0,1,3,3.28,31.57,31.57,0,0,0,3.19,3.45c8.7,8.4,20.46,13.49,31.95,16.71S271,785.22,283,786.67c17.17,2.09,35.11,1.3,51.5-4.59,2.09-.75,16.8-6,16.68-8.32Q349.38,739.16,347.59,704.57Z"/><path d="M299.82,789.73a140.59,140.59,0,0,1-17.1-1.08c-12.84-1.56-24.39-3.12-35.78-6.31-14-3.93-25.05-9.72-32.8-17.2a33.53,33.53,0,0,1-3.39-3.68l-.36-.48a10.7,10.7,0,0,0-2.17-2.38,8.54,8.54,0,0,0-1.67-.94c-5.09-2.23-14.36-8-14.45-8l-1-.6c-3.74-2.32-8-5-10.67-8.92s-3.22-9.84.29-13.17a10.63,10.63,0,0,1,1.25-1,11.33,11.33,0,0,1-1.73-1.65c-2.68-3.31-2.06-8.78.2-11.81a10.58,10.58,0,0,1,10.1-3.82c4.4.64,8.49,2.43,12.45,4.15,1.68.74,3.28,1.43,4.89,2,23.79,9,49,11.81,62.36,10.59l.24,0a81.55,81.55,0,0,1-9.41-2.58c-10.27-3.52-16.09-7.34-17.8-11.68a7.33,7.33,0,0,1,.44-6.3c1.89-3.56,5.48-5.44,10.65-5.59A91.59,91.59,0,0,1,269,700.42c2.93.39,6,.79,8.91,1,6.76.46,13.86.88,21.72,1.28h.32c29.37,1.52,44.49,1.33,46.45.46a1.65,1.65,0,0,0-.78,1.52l4-.2,3.57,69.18c.08,1.51.2,3.79-18,10.31A104.25,104.25,0,0,1,299.82,789.73Zm-111-77.19a6.31,6.31,0,0,0-5.17,2.34c-1.31,1.75-1.72,5.15-.3,6.91a14.8,14.8,0,0,0,3.44,2.59l3.47,1.94L186.67,728a14.74,14.74,0,0,0-3.16,1.88c-2,1.95-1.16,5.91.27,8,2.21,3.25,5.9,5.55,9.47,7.76l1,.61A152.85,152.85,0,0,0,208.13,754a12.78,12.78,0,0,1,2.42,1.37,14,14,0,0,1,3,3.22l.35.46a29.63,29.63,0,0,0,3,3.23c7.27,7,17.73,12.48,31.1,16.23,11.12,3.12,22.51,4.65,35.19,6.19,18.88,2.3,35.9.79,50.59-4.48,10.21-3.66,14.33-6,15.33-6.85l-3.4-66c-4.5.65-15.83.93-46-.63l-.33,0c-7.87-.4-15-.82-21.78-1.28-3.07-.2-6.17-.61-9.16-1a90,90,0,0,0-13.93-1.1c-3.74.11-6,1.21-7.24,3.47a3.29,3.29,0,0,0-.24,3c.84,2.15,4.2,5.52,15.37,9.36a87.39,87.39,0,0,0,12.4,3.13c3.79.73,5.88,1.13,5.85,3.33,0,1.94-1.64,3.13-10,3.9-13.81,1.26-39.77-1.59-64.15-10.83-1.7-.64-3.42-1.39-5.07-2.11-3.72-1.62-7.56-3.3-11.42-3.86A7.15,7.15,0,0,0,188.86,712.54Z"/><path d="M253.45,749.92c-10.41,0-23.44-2.9-38.93-8.68a255.31,255.31,0,0,1-29.63-13.36,2,2,0,1,1,1.93-3.51c.51.28,51.56,28,77.37,20.12a2,2,0,0,1,1.17,3.83A40.92,40.92,0,0,1,253.45,749.92Z"/><path d="M251.48,769.1c-19.43,0-41.76-9.79-42.9-10.3a2,2,0,1,1,1.62-3.65c.33.14,32.82,14.38,52.13,8.54a2,2,0,1,1,1.16,3.83A41.71,41.71,0,0,1,251.48,769.1Z"/><rect class="cls-3" x="194.41" y="259.38" width="68.64" height="157.86" rx="12.71"/><path d="M228.75,313.08h-.15c-8.46-.05-17.12-4.23-23.76-11.48A43.11,43.11,0,0,1,193.92,269a2,2,0,0,1,2.16-1.83,2,2,0,0,1,1.83,2.16,39.06,39.06,0,0,0,9.88,29.56c5.89,6.43,13.48,10.14,20.83,10.18h.13c8.2,0,14.55-4.57,18.43-8.42,7.55-7.48,12.64-18.88,12.68-28.37q0-.68,0-1.2a2,2,0,0,1,1.92-2.08,2,2,0,0,1,2.08,1.91q0,.61,0,1.38c0,10.49-5.61,23-13.86,31.2C243.67,309.77,236.32,313.08,228.75,313.08Z"/><path d="M199.39,416.42a2,2,0,0,1-1.55-.73,2,2,0,0,1,.28-2.81l29.82-24.53V311a2,2,0,0,1,4,0v79.27L200.66,416A2,2,0,0,1,199.39,416.42Z"/><path d="M260,415.52a2,2,0,0,1-1.26-.45l-30-24.22a2,2,0,0,1,2.51-3.11l30,24.22a2,2,0,0,1-1.25,3.56Z"/><path d="M384.41,334.71a2,2,0,0,1-2-2V296.28a2,2,0,0,1,4,0v36.43A2,2,0,0,1,384.41,334.71Z"/><rect class="cls-3" x="345.59" y="690.15" width="31.44" height="99.35" rx="15.72"/><path d="M377,771.29a2,2,0,0,1-2-2V705.87a2,2,0,0,1,4,0v63.42A2,2,0,0,1,377,771.29Z"/><path d="M510.84,448.45a2,2,0,0,1-.09-4l103.12-4.21a2,2,0,1,1,.16,4l-103.11,4.22Z"/><path d="M547.27,663.05H491a2,2,0,1,1,0-4h53.43l38.88-106.86a2,2,0,0,1,3.76,1.37Z"/><rect x="528.9" y="208.51" width="10.71" height="41.02" rx="5.36" transform="translate(211.89 712.71) rotate(-79.52)"/><rect class="cls-2" x="709.12" y="244.4" width="127.52" height="127.52" rx="23.56"/><path d="M813.08,373.92h-80.4a25.6,25.6,0,0,1-25.56-25.57V268a25.59,25.59,0,0,1,25.56-25.56h80.4A25.59,25.59,0,0,1,838.64,268v80.39A25.6,25.6,0,0,1,813.08,373.92ZM732.68,246.4A21.58,21.58,0,0,0,711.12,268v80.39a21.59,21.59,0,0,0,21.56,21.57h80.4a21.59,21.59,0,0,0,21.56-21.57V268a21.58,21.58,0,0,0-21.56-21.56Z"/><rect class="cls-5" x="735.5" y="283.32" width="74.77" height="66.01" rx="8.72"/><path class="cls-6" d="M810.26,306.91H735.5a2,2,0,0,1,0-4h74.76a2,2,0,0,1,0,4Z"/><path class="cls-6" d="M776,285.32h-3.1c-18.42,0-23.7-6.41-24.88-11.79a7,7,0,0,1,6.35-8.52c11.9-.82,20,16.73,20.35,17.48ZM755.13,269l-.51,0a3,3,0,0,0-2.18,1.19,3.07,3.07,0,0,0-.54,2.48c1.12,5.05,7.34,8.05,17.64,8.57C766.67,276.24,761.16,269,755.13,269Z"/><path class="cls-6" d="M772.63,285.32h-3.11l1.28-2.83c.34-.75,8.44-18.31,20.35-17.48a7,7,0,0,1,6.36,8.52C796.32,278.91,791,285.32,772.63,285.32ZM790.38,269c-6,0-11.54,7.26-14.42,12.26,10.31-.52,16.53-3.52,17.64-8.57a3,3,0,0,0-.54-2.48,2.94,2.94,0,0,0-2.18-1.19Z"/><path class="cls-6" d="M792.8,320.44a2,2,0,0,1-1.73-1l-18.63-32.12-17.75,30.95a2,2,0,0,1-3.47-2l21.2-37,22.11,38.12a2,2,0,0,1-.72,2.73A2,2,0,0,1,792.8,320.44Z"/><path class="cls-6" d="M773.2,351.33a2,2,0,0,1-2-2V285.42a2,2,0,0,1,4,0v63.91A2,2,0,0,1,773.2,351.33Z"/><rect class="cls-2" x="107.89" y="383.2" width="163.93" height="56.44" rx="28.22"/><path d="M243.59,441.64H136.11a30.22,30.22,0,0,1,0-60.44H243.59a30.22,30.22,0,1,1,0,60.44ZM136.11,385.2a26.22,26.22,0,0,0,0,52.44H243.59a26.22,26.22,0,1,0,0-52.44Z"/><circle class="cls-3" cx="145.19" cy="411.42" r="9.19"/><circle class="cls-3" cx="189.85" cy="411.42" r="9.19"/><circle class="cls-3" cx="234.51" cy="411.42" r="9.19"/><rect class="cls-2" x="632.06" y="503.05" width="262.29" height="280.77" rx="33.62"/><path d="M860.73,785.82H665.68a35.66,35.66,0,0,1-35.62-35.62V536.67a35.66,35.66,0,0,1,35.62-35.62H860.73a35.66,35.66,0,0,1,35.62,35.62V750.2A35.66,35.66,0,0,1,860.73,785.82ZM665.68,505.05a31.66,31.66,0,0,0-31.62,31.62V750.2a31.65,31.65,0,0,0,31.62,31.62H860.73a31.66,31.66,0,0,0,31.62-31.62V536.67a31.66,31.66,0,0,0-31.62-31.62Z"/><rect class="cls-1" x="657.85" y="608.64" width="53.51" height="53.51" rx="13.71"/><rect class="cls-1" x="657.85" y="689.88" width="53.51" height="53.51" rx="13.71"/><path d="M865.11,622.38H744.33a2,2,0,0,1,0-4H865.11a2,2,0,0,1,0,4Z"/><path d="M818.78,651.84H744.33a2,2,0,0,1,0-4h74.45a2,2,0,0,1,0,4Z"/><path d="M865.11,703.9H744.33a2,2,0,0,1,0-4H865.11a2,2,0,0,1,0,4Z"/><path d="M818.78,733.36H744.33a2,2,0,0,1,0-4h74.45a2,2,0,0,1,0,4Z"/><path class="cls-4" d="M683.93,532.51h1.35a16.06,16.06,0,0,1,16.06,16.06V566a0,0,0,0,1,0,0H667.87a0,0,0,0,1,0,0V548.57A16.06,16.06,0,0,1,683.93,532.51Z"/><rect class="cls-4" x="660.11" y="562.75" width="48.99" height="11.33" rx="5.44"/><circle class="cls-4" cx="684.61" cy="574.08" r="6.7"/><path class="cls-4" d="M684.42,525.14h.38a4.48,4.48,0,0,1,4.48,4.48v9.83a0,0,0,0,1,0,0h-9.33a0,0,0,0,1,0,0v-9.83A4.48,4.48,0,0,1,684.42,525.14Z"/></svg>